<svg xmlns="http://www.w3.org/2000/svg" aria-hidden="true"><defs><symbol id="icon-custom-bars" viewBox="0 0 640 640"> <g fill="none" stroke="currentColor" stroke-width="80" stroke-linecap="round" stroke-linejoin="round"> <line x1="80" y1="120" x2="560" y2="120"/> <line x1="80" y1="320" x2="560" y2="320"/> <line x1="80" y1="520" x2="560" y2="520"/> </g> </symbol><symbol id="icon-custom-chevron-right" viewBox="0 0 640 640"> <path d="M240 120l200 200-200 200" fill="none" stroke="currentColor" stroke-width="80" stroke-linecap="butt" stroke-linejoin="miter"/> </symbol><symbol id="icon-fab-github" viewBox="0 0 512 512"><path fill="currentColor" d="M216.5 362.5c-66-8-112.5-55.5-112.5-117 0-25 9-52 24-70-6.5-16.5-5.5-51.5 2-66 20-2.5 47 8 63 22.5 19-6 39-9 63.5-9s44.5 3 62.5 8.5c15.5-14 43-24.5 63-22 7 13.5 8 48.5 1.5 65.5 16 19 24.5 44.5 24.5 70.5 0 61.5-46.5 108-113.5 116.5 17 11 28.5 35 28.5 62.5l0 52C323 491.5 335.5 500 350.5 494 441 459.5 512 369 512 257 512 115.5 397 0 255.5 0S0 115.5 0 257c0 111 70.5 203 165.5 237.5 13.5 5 26.5-4 26.5-17.5l0-40c-7 3-16 5-24 5-33 0-52.5-18-66.5-51.5-5.5-13.5-11.5-21.5-23-23-6-.5-8-3-8-6 0-6 10-10.5 20-10.5 14.5 0 27 9 40 27.5 10 14.5 20.5 21 33 21s20.5-4.5 32-16c8.5-8.5 15-16 21-21z"/></symbol><symbol id="icon-far-moon" viewBox="0 0 512 512"><path fill="currentColor" d="M239.3 48.7c-107.1 8.5-191.3 98.1-191.3 207.3 0 114.9 93.1 208 208 208 33.3 0 64.7-7.8 92.6-21.7-103.4-23.4-180.6-115.8-180.6-226.3 0-65.8 27.4-125.1 71.3-167.3zM0 256c0-141.4 114.6-256 256-256 19.4 0 38.4 2.2 56.7 6.3 9.9 2.2 17.3 10.5 18.5 20.5s-4 19.8-13.1 24.4c-60.6 30.2-102.1 92.7-102.1 164.8 0 101.6 82.4 184 184 184 5 0 9.9-.2 14.8-.6 10.1-.8 19.6 4.8 23.8 14.1s2 20.1-5.3 27.1C387.3 484.8 324.8 512 256 512 114.6 512 0 397.4 0 256z"/></symbol><symbol id="icon-far-sun" viewBox="0 0 576 512"><path fill="currentColor" d="M288-32c8 0 15.4 4 19.9 10.6l58.8 87.4 103.4-20.2c7.8-1.5 15.9 .9 21.6 6.6s8.1 13.8 6.6 21.6L478 177.3 565.4 236.1C572 240.5 576 248 576 256s-4 15.4-10.6 19.9L478 334.7 498.2 438c1.5 7.8-.9 15.9-6.6 21.6s-13.8 8.1-21.6 6.6L366.7 446 307.9 533.4C303.4 540 296 544 288 544s-15.4-4-19.9-10.6L209.3 446 105.9 466.2c-7.8 1.5-15.9-.9-21.6-6.6s-8.1-13.8-6.6-21.6L98 334.7 10.6 275.9C4 271.4 0 264 0 256s4-15.4 10.6-19.9L98 177.3 77.8 73.9c-1.5-7.8 .9-15.9 6.6-21.6s13.8-8.1 21.6-6.6l103.3 20.2 58.8-87.4 1.8-2.3C274.4-29 281-32 288-32zm-47.8 138c-5.4 8-15 12-24.5 10.2l-84-16.4 16.4 84c1.8 9.5-2.2 19.1-10.2 24.5L67 256 138 303.8c8 5.4 12 15 10.2 24.5l-16.4 84 84-16.4 3.5-.4c8.3-.4 16.3 3.6 21 10.6l47.8 71 47.8-71 2.2-2.8c5.6-6.1 14-9 22.3-7.3l84 16.4-16.4-84c-1.8-9.5 2.2-19.1 10.2-24.5l71-47.8-71-47.8c-8-5.4-12-15-10.2-24.5l16.4-84-84 16.4c-9.5 1.8-19.1-2.2-24.5-10.2l-47.8-71-47.8 71zM288 376a120 120 0 1 1 0-240 120 120 0 1 1 0 240zm0-192a72 72 0 1 0 0 144 72 72 0 1 0 0-144z"/></symbol><symbol id="icon-fas-circle-half-stroke" viewBox="0 0 512 512"><path fill="currentColor" d="M448 256c0-106-86-192-192-192l0 384c106 0 192-86 192-192zM0 256a256 256 0 1 1 512 0 256 256 0 1 1 -512 0z"/></symbol><symbol id="icon-fas-earth-asia" viewBox="0 0 512 512"><path fill="currentColor" d="M50 284.8c4.2 2.1 9 3.2 14 3.2l50.7 0c8.5 0 16.6 3.4 22.6 9.4l13.3 13.3c6 6 14.1 9.4 22.6 9.4l18.7 0c17.7 0 32-14.3 32-32l0-40c0-13.3 10.7-24 24-24s24-10.7 24-24l0-42.7c0-8.5 3.4-16.6 9.4-22.6l13.3-13.3c6-6 9.4-14.1 9.4-22.6L304 57c0-1.2-.1-2.3-.2-3.5-15.4-3.6-31.4-5.5-47.8-5.5-114.9 0-208 93.1-208 208 0 9.8 .7 19.4 2 28.8zm403.3 37.3c-3.2-1.4-6.7-2.1-10.5-2.1L432 320c-8.8 0-16-7.2-16-16s-7.2-16-16-16l-34.7 0c-8.5 0-16.6 3.4-22.6 9.4l-45.3 45.3c-6 6-9.4 14.1-9.4 22.6l0 18.7c0 17.7 14.3 32 32 32l18.7 0c8.5 0 16.6 3.4 22.6 9.4 2.2 2.2 4.7 4.1 7.3 5.5 39.3-25.4 69.5-63.6 84.6-108.8zM0 256a256 256 0 1 1 512 0 256 256 0 1 1 -512 0zM128 368c0 8.8 7.2 16 16 16l32 0c8.8 0 16-7.2 16-16s-7.2-16-16-16l-32 0c-8.8 0-16 7.2-16 16zM272 256c-8.8 0-16 7.2-16 16l0 32c0 8.8 7.2 16 16 16s16-7.2 16-16l0-32c0-8.8-7.2-16-16-16zm48-112l0 32c0 8.8 7.2 16 16 16s16-7.2 16-16l0-32c0-8.8-7.2-16-16-16s-16 7.2-16 16z"/></symbol><symbol id="icon-fas-magnifying-glass" viewBox="0 0 512 512"><path fill="currentColor" d="M416 208c0 45.9-14.9 88.3-40 122.7L502.6 457.4c12.5 12.5 12.5 32.8 0 45.3s-32.8 12.5-45.3 0L330.7 376C296.3 401.1 253.9 416 208 416 93.1 416 0 322.9 0 208S93.1 0 208 0 416 93.1 416 208zM208 352a144 144 0 1 0 0-288 144 144 0 1 0 0 288z"/></symbol></defs></svg>